<mxfile host="app.diagrams.net" modified="2023-09-14T12:56:00.911Z" agent="Mozilla/5.0 (Macintosh; Intel Mac OS X 10_15_7) AppleWebKit/537.36 (KHTML, like Gecko) Chrome/111.0.0.0 Safari/537.36" version="21.7.5" etag="42Z3uVPyDgmD4de8Dfwf" type="github">
  <diagram name="第 1 页" id="Q4FQ7CQyjut2bCmuQP5b">
    <mxGraphModel>
      <root>
        <mxCell id="0" />
        <mxCell id="1" parent="0" />
      </root>
    </mxGraphModel>
  </diagram>
</mxfile>
